<svg width="20" height="20" viewBox="0 0 20 20" fill="none" xmlns="http://www.w3.org/2000/svg">
<path d="M9.99935 1.66675C5.39102 1.66675 1.66602 5.39175 1.66602 10.0001C1.66602 14.6084 5.39102 18.3334 9.99935 18.3334C14.6077 18.3334 18.3327 14.6084 18.3327 10.0001C18.3327 5.39175 14.6077 1.66675 9.99935 1.66675ZM13.5827 13.5834C13.2577 13.9084 12.7327 13.9084 12.4077 13.5834L9.99935 11.1751L7.59102 13.5834C7.26602 13.9084 6.74102 13.9084 6.41602 13.5834C6.09102 13.2584 6.09102 12.7334 6.41602 12.4084L8.82435 10.0001L6.41602 7.59175C6.09102 7.26675 6.09102 6.74175 6.41602 6.41675C6.74102 6.09175 7.26602 6.09175 7.59102 6.41675L9.99935 8.82508L12.4077 6.41675C12.7327 6.09175 13.2577 6.09175 13.5827 6.41675C13.9077 6.74175 13.9077 7.26675 13.5827 7.59175L11.1743 10.0001L13.5827 12.4084C13.8993 12.7251 13.8993 13.2584 13.5827 13.5834Z" fill="#4E5968"/>
</svg>
