<svg width="40" height="40" viewBox="0 0 40 40" fill="none" xmlns="http://www.w3.org/2000/svg">
<path opacity="0.7" d="M25.7791 21.4536C26.6543 21.4536 27.3638 20.7441 27.3638 19.8689C27.3638 18.9937 26.6543 18.2842 25.7791 18.2842C24.9039 18.2842 24.1944 18.9937 24.1944 19.8689C24.1944 20.7441 24.9039 21.4536 25.7791 21.4536Z" fill="black" fill-opacity="0.87"/>
<path opacity="0.7" d="M14.2154 21.2651C15.0906 21.2651 15.8001 20.5556 15.8001 19.6804C15.8001 18.8052 15.0906 18.0957 14.2154 18.0957C13.3402 18.0957 12.6307 18.8052 12.6307 19.6804C12.6307 20.5556 13.3402 21.2651 14.2154 21.2651Z" fill="black" fill-opacity="0.87"/>
<path opacity="0.7" d="M17.6202 13.6401C18.2962 13.6401 18.8441 13.0921 18.8441 12.4162C18.8441 11.7403 18.2962 11.1924 17.6202 11.1924C16.9443 11.1924 16.3964 11.7403 16.3964 12.4162C16.3964 13.0921 16.9443 13.6401 17.6202 13.6401Z" fill="black" fill-opacity="0.87"/>
<path opacity="0.7" d="M22.3744 13.6869C23.0503 13.6869 23.5982 13.139 23.5982 12.4631C23.5982 11.7872 23.0503 11.2393 22.3744 11.2393C21.6984 11.2393 21.1505 11.7872 21.1505 12.4631C21.1505 13.139 21.6984 13.6869 22.3744 13.6869Z" fill="black" fill-opacity="0.87"/>
<path opacity="0.7" d="M19.9739 16.0409C20.6498 16.0409 21.1978 15.493 21.1978 14.8171C21.1978 14.1412 20.6498 13.5933 19.9739 13.5933C19.298 13.5933 18.7501 14.1412 18.7501 14.8171C18.7501 15.493 19.298 16.0409 19.9739 16.0409Z" fill="black" fill-opacity="0.87"/>
<path opacity="0.7" d="M20.0209 11.2866C20.6968 11.2866 21.2448 10.7386 21.2448 10.0627C21.2448 9.3868 20.6968 8.83887 20.0209 8.83887C19.345 8.83887 18.7971 9.3868 18.7971 10.0627C18.7971 10.7386 19.345 11.2866 20.0209 11.2866Z" fill="black" fill-opacity="0.87"/>
<path opacity="0.7" d="M17.6202 28.3417C18.2962 28.3417 18.8441 27.7938 18.8441 27.1179C18.8441 26.442 18.2962 25.894 17.6202 25.894C16.9443 25.894 16.3964 26.442 16.3964 27.1179C16.3964 27.7938 16.9443 28.3417 17.6202 28.3417Z" fill="black" fill-opacity="0.87"/>
<path opacity="0.7" d="M22.3744 28.3886C23.0503 28.3886 23.5982 27.8407 23.5982 27.1648C23.5982 26.4889 23.0503 25.9409 22.3744 25.9409C21.6984 25.9409 21.1505 26.4889 21.1505 27.1648C21.1505 27.8407 21.6984 28.3886 22.3744 28.3886Z" fill="black" fill-opacity="0.87"/>
<path opacity="0.7" d="M19.9739 30.7426C20.6498 30.7426 21.1978 30.1947 21.1978 29.5188C21.1978 28.8429 20.6498 28.2949 19.9739 28.2949C19.298 28.2949 18.7501 28.8429 18.7501 29.5188C18.7501 30.1947 19.298 30.7426 19.9739 30.7426Z" fill="black" fill-opacity="0.87"/>
<path opacity="0.7" d="M20.0209 25.9882C20.6968 25.9882 21.2448 25.4403 21.2448 24.7644C21.2448 24.0885 20.6968 23.5405 20.0209 23.5405C19.345 23.5405 18.7971 24.0885 18.7971 24.7644C18.7971 25.4403 19.345 25.9882 20.0209 25.9882Z" fill="black" fill-opacity="0.87"/>
<path d="M31.0983 12.7143L31.5847 10.5961L28.9173 8.02291L26.9247 8.6976C24.9163 7.47375 22.6255 6.78338 20.2092 6.752C17.6517 6.72062 15.204 7.41099 13.0859 8.6976L11.0932 8.02291L8.42584 10.5961L8.91224 12.7143C7.48442 14.8639 6.73129 17.3586 6.74698 19.9632C6.69991 27.1651 12.521 33.1431 19.7228 33.2843C19.817 33.2843 19.9111 33.2843 20.0053 33.2843C23.5827 33.2843 26.9247 31.9035 29.4351 29.3931C31.9299 26.8983 33.2949 23.5877 33.3106 20.0574C33.2792 17.39 32.5261 14.8639 31.0983 12.7143ZM20.0053 9.23107C21.794 9.23107 23.2375 10.6746 23.2375 12.4476C23.2375 14.2206 21.794 15.6641 20.0053 15.6641C18.2166 15.6641 16.7731 14.2206 16.7731 12.4476C16.7731 10.6746 18.2166 9.23107 20.0053 9.23107ZM14.2312 24.2467H14.1999C11.6894 24.231 9.57123 22.1285 9.57123 19.6651C9.57123 18.457 10.0576 17.3273 10.9363 16.4643C11.8149 15.6013 12.976 15.1306 14.2156 15.1306C15.4551 15.1306 16.6319 15.617 17.5105 16.4957C18.3735 17.3586 18.8599 18.4883 18.8442 19.6808C18.8442 22.1599 16.726 24.2467 14.2312 24.2467ZM20.0053 30.3502C18.2166 30.3502 16.7731 28.9067 16.7731 27.1337C16.7731 25.3607 18.2166 23.9172 20.0053 23.9172C21.794 23.9172 23.2375 25.3607 23.2375 27.1337C23.2375 28.9067 21.7783 30.3502 20.0053 30.3502ZM29.0742 23.0699C28.1956 23.9329 27.0188 24.4193 25.7793 24.4193C24.5398 24.4193 23.363 23.9329 22.4843 23.0542C21.6057 22.1912 21.135 21.0615 21.1507 19.8691C21.1663 17.39 23.2845 15.3032 25.7793 15.3032H25.795C28.3054 15.3032 30.4236 17.4057 30.4236 19.8848C30.4236 21.0772 29.9372 22.2226 29.0742 23.0699Z" fill="black" fill-opacity="0.87"/>
<path d="M19.9742 36.25H19.6447C10.811 36.0931 3.68765 28.7814 3.75041 19.9635C3.75041 16.8568 4.07991 14.5347 5.72739 11.9771L5.39789 8.93322L9.86962 4.91651L12.5527 5.40291C14.9847 3.94371 16.993 3.70836 20.2566 3.75543C23.0181 3.8025 25.2304 4.132 27.6624 5.59119L30.7377 5.2617L34.7073 9.19996L34.3778 11.9771C35.9469 14.4719 36.245 16.6842 36.245 20.0733C36.2293 24.3725 34.5504 28.4362 31.5065 31.4958C28.4469 34.5554 24.3518 36.25 19.9742 36.25ZM6.55897 9.37255L6.85709 12.2439L6.74726 12.4008C5.14685 14.8328 4.84873 16.9353 4.84873 19.9635C4.78597 28.1852 11.423 34.9948 19.6604 35.1517H19.9742C24.0536 35.1517 27.8664 33.567 30.722 30.6956C33.5619 27.84 35.131 24.0587 35.1467 20.0576C35.1467 16.7941 34.8642 14.7229 33.358 12.3851L33.2481 12.2282L33.5463 9.59221L30.3297 6.40709L27.4114 6.72089L27.2545 6.62675C24.948 5.21462 22.9239 4.90082 20.2252 4.85375C17.1185 4.80668 15.2357 5.04203 12.9449 6.43847L12.7723 6.5483L10.2148 6.09328L6.55897 9.37255Z" fill="black" fill-opacity="0.87"/>
</svg>
