<svg width="24" height="24" viewBox="0 0 24 24" fill="none" xmlns="http://www.w3.org/2000/svg">
<path fill-rule="evenodd" clip-rule="evenodd" d="M23.04 11.0957C23.04 16.9751 18.0187 21.603 12 21.603C5.98131 21.603 0.959991 16.9751 0.959991 11.0957C0.959991 8.35169 1.47776 6.08313 3.63899 4.06553C4.0648 3.66802 4.48915 3.2842 4.96554 3.00002C5.4927 2.68555 6.02272 2.52497 6.63818 2.44718C7.20497 2.37553 7.87876 2.37125 8.6885 2.3785C8.94262 2.38077 9.21447 2.38432 9.50914 2.38817C10.1904 2.39707 10.9936 2.40755 11.9813 2.40755C12.969 2.40755 13.7722 2.39707 14.4535 2.38817C14.7482 2.38432 15.02 2.38077 15.2741 2.3785C16.0839 2.37125 16.7577 2.37553 17.3245 2.44718C17.94 2.52497 18.47 2.68554 18.9971 3.00002C19.4735 3.2842 19.8979 3.66802 20.3237 4.06553C22.4741 6.07304 23.04 8.33083 23.04 11.0957ZM12 20.163C17.3019 20.163 21.6 16.1034 21.6 11.0957C21.6 8.57259 21.1018 6.7619 19.341 5.11814C17.9111 3.78321 17.7027 3.78592 14.4836 3.82792C13.7992 3.83685 12.9786 3.84755 11.9813 3.84755C10.984 3.84755 10.1634 3.83685 9.47902 3.82792C6.26 3.78592 6.05161 3.78321 4.62165 5.11814C2.86088 6.7619 2.39999 8.57259 2.39999 11.0957C2.39999 16.1034 6.69806 20.163 12 20.163Z" fill="#9E9E9E"/>
<path opacity="0.7" d="M7.03121 11.612C7.37621 11.5738 7.63178 11.242 7.60622 10.8976C7.56789 10.5531 7.23565 10.2852 6.89065 10.3235C6.54564 10.3617 6.2773 10.6935 6.31563 11.0379C6.35397 11.3951 6.6862 11.6503 7.03121 11.612Z" fill="#9E9E9E"/>
<path opacity="0.7" d="M12.0712 11.612C12.4162 11.5738 12.6718 11.242 12.6462 10.8976C12.6079 10.5531 12.2757 10.2852 11.9307 10.3235C11.5856 10.3617 11.3173 10.6935 11.3556 11.0379C11.394 11.3951 11.7262 11.6503 12.0712 11.612Z" fill="#9E9E9E"/>
<path opacity="0.7" d="M14.4288 7.82096C14.6843 7.7926 14.8736 7.5469 14.8547 7.29174C14.8263 7.03658 14.5802 6.83812 14.3246 6.86647C14.0691 6.89482 13.8703 7.14053 13.8987 7.39569C13.9271 7.6603 14.1732 7.84931 14.4288 7.82096Z" fill="#9E9E9E"/>
<path opacity="0.7" d="M9.67674 7.82096C9.9323 7.7926 10.1216 7.5469 10.1027 7.29174C10.0743 7.03658 9.82818 6.83812 9.57262 6.86647C9.31706 6.89482 9.11829 7.14053 9.14669 7.39569C9.17508 7.6603 9.42118 7.84931 9.67674 7.82096Z" fill="#9E9E9E"/>
<path opacity="0.7" d="M17.1112 11.612C17.4562 11.5738 17.7118 11.242 17.6862 10.8976C17.6479 10.5531 17.3157 10.2852 16.9707 10.3235C16.6257 10.3617 16.3573 10.6935 16.3957 11.0379C16.434 11.3951 16.7662 11.6503 17.1112 11.612Z" fill="#9E9E9E"/>
<path fill-rule="evenodd" clip-rule="evenodd" d="M12.0107 19.0395C16.5762 19.0395 20.2773 15.5437 20.2773 11.2314C20.2773 9.0588 19.8483 7.49959 18.3321 6.08413C17.1008 4.93461 16.9213 4.93695 14.1493 4.97311C13.56 4.9808 12.8534 4.99002 11.9946 4.99002C11.1358 4.99002 10.4292 4.9808 9.83981 4.97311C7.06788 4.93695 6.88844 4.93461 5.65708 6.08413C4.14086 7.49959 3.74399 9.0588 3.74399 11.2314C3.74399 15.5437 7.4451 19.0395 12.0107 19.0395ZM6.95999 12.8882C8.02037 12.8882 8.87999 12.0286 8.87999 10.9682C8.87999 9.90784 8.02037 9.04822 6.95999 9.04822C5.8996 9.04822 5.03999 9.90784 5.03999 10.9682C5.03999 12.0286 5.8996 12.8882 6.95999 12.8882ZM18.96 10.9682C18.96 12.0286 18.1004 12.8882 17.04 12.8882C15.9796 12.8882 15.12 12.0286 15.12 10.9682C15.12 9.90784 15.9796 9.04822 17.04 9.04822C18.1004 9.04822 18.96 9.90784 18.96 10.9682ZM12 12.8882C13.0604 12.8882 13.92 12.0286 13.92 10.9682C13.92 9.90784 13.0604 9.04822 12 9.04822C10.9396 9.04822 10.08 9.90784 10.08 10.9682C10.08 12.0286 10.9396 12.8882 12 12.8882ZM10.872 7.34422C10.872 8.03347 10.3132 8.59222 9.62399 8.59222C8.93474 8.59222 8.37599 8.03347 8.37599 7.34422C8.37599 6.65497 8.93474 6.09622 9.62399 6.09622C10.3132 6.09622 10.872 6.65497 10.872 7.34422ZM14.376 8.59222C15.0652 8.59222 15.624 8.03347 15.624 7.34422C15.624 6.65497 15.0652 6.09622 14.376 6.09622C13.6867 6.09622 13.128 6.65497 13.128 7.34422C13.128 8.03347 13.6867 8.59222 14.376 8.59222ZM11.352 15.2642C11.352 16.3246 10.4924 17.1842 9.43199 17.1842C8.3716 17.1842 7.51199 16.3246 7.51199 15.2642C7.51199 14.2038 8.3716 13.3442 9.43199 13.3442C10.4924 13.3442 11.352 14.2038 11.352 15.2642ZM14.568 17.1842C15.6284 17.1842 16.488 16.3246 16.488 15.2642C16.488 14.2038 15.6284 13.3442 14.568 13.3442C13.5076 13.3442 12.648 14.2038 12.648 15.2642C12.648 16.3246 13.5076 17.1842 14.568 17.1842Z" fill="#9E9E9E"/>
<path opacity="0.7" d="M9.50322 15.9079C9.84823 15.8696 10.1038 15.5379 10.0782 15.1935C10.0399 14.849 9.70767 14.5811 9.36266 14.6194C9.01765 14.6576 8.74931 14.9893 8.78765 15.3338C8.82598 15.691 9.15821 15.9462 9.50322 15.9079Z" fill="#9E9E9E"/>
<path opacity="0.7" d="M14.6392 15.9079C14.9842 15.8696 15.2398 15.5379 15.2142 15.1935C15.1759 14.849 14.8437 14.5811 14.4986 14.6194C14.1536 14.6576 13.8853 14.9893 13.9236 15.3338C13.962 15.691 14.2942 15.9462 14.6392 15.9079Z" fill="#9E9E9E"/>
</svg>
