<svg width="20" height="20" viewBox="0 0 20 20" fill="none" xmlns="http://www.w3.org/2000/svg">
<path fill-rule="evenodd" clip-rule="evenodd" d="M1.68311 10C1.68311 5.40835 5.4081 1.68335 9.99977 1.68335C14.5914 1.68335 18.3164 5.40835 18.3164 10C18.3164 14.5917 14.5914 18.3167 9.99977 18.3167C5.4081 18.3167 1.68311 14.5917 1.68311 10ZM9.56644 11.45V14.9C9.56644 15.3417 10.1581 15.4833 10.3581 15.0833L13.3248 9.15002C13.4581 8.87502 13.2581 8.55002 12.9498 8.55002H10.8331V5.05835C10.8331 4.61668 10.2414 4.47502 10.0498 4.86668L6.98311 10.8417C6.83311 11.1167 7.04144 11.45 7.34977 11.45H9.56644Z" fill="#039BE5"/>
</svg>
