<svg width="24" height="24" viewBox="0 0 24 24" fill="none" xmlns="http://www.w3.org/2000/svg">
<path d="M16.7674 7.7625C15.5323 6.516 13.897 5.80698 12.1473 5.77267C10.2947 5.73837 8.5565 6.44739 7.25282 7.7625C6.00632 9.02044 5.32017 10.6786 5.30873 12.4169C5.2973 14.2009 5.98345 15.8819 7.25282 17.1627C8.49932 18.4321 10.1575 19.1411 11.9072 19.164C11.9415 19.164 11.9644 19.164 11.9872 19.164C15.681 19.164 18.7001 16.1678 18.7001 12.4855C18.7001 10.7015 18.0139 9.02044 16.7674 7.7625ZM14.709 7.92261H14.7318C15.8525 7.92261 16.7217 8.80316 16.7217 9.91244C16.7217 10.4499 16.5158 10.9645 16.1384 11.3419C15.7611 11.7193 15.2693 11.9251 14.7318 11.9251H14.7204C13.6226 11.9137 12.7306 11.0217 12.7306 9.92387C12.7306 8.83747 13.6111 7.93404 14.709 7.92261ZM7.82461 8.51727C8.21343 8.12845 8.7166 7.92261 9.25408 7.92261H9.26552C10.3634 7.93404 11.2553 8.82603 11.2668 9.92387C11.2668 10.4499 11.0609 10.9417 10.6721 11.3305C10.2833 11.7193 9.78013 11.9366 9.24265 11.9366H9.23121C8.15625 11.9366 7.24138 11.0217 7.22995 9.93531C7.24138 9.40926 7.44723 8.90608 7.82461 8.51727ZM8.21343 15.4588C8.20199 15.4588 8.19056 15.4588 8.17912 15.4588C7.49297 15.4588 6.89831 14.8756 6.88687 14.178C6.87544 13.8235 7.01267 13.4918 7.26426 13.2288C7.51584 12.9772 7.83605 12.84 8.19056 12.84C8.89958 12.84 9.4828 13.4232 9.49424 14.1322C9.49424 14.8413 8.92245 15.4359 8.21343 15.4588ZM12.033 17.9632H12.0101C10.9008 17.9632 9.99741 17.0713 9.99741 15.9734C9.99741 14.8641 10.9008 13.9607 12.0101 13.9607H12.0215C13.1079 13.9607 13.9999 14.8527 14.0114 15.9505C14.0114 17.0484 13.1308 17.9518 12.033 17.9632ZM15.8182 15.4588C15.8068 15.4588 15.7954 15.4588 15.7839 15.4588C15.0749 15.4588 14.4802 14.8641 14.4802 14.1551C14.4802 13.4461 15.0635 12.8629 15.7725 12.8629H15.7839C16.4929 12.8629 17.0762 13.4347 17.0876 14.1437C17.1105 14.8413 16.5387 15.4359 15.8182 15.4588Z" fill="#9E9E9E"/>
<path opacity="0.7" d="M9.27688 10.4952C9.58565 10.4838 9.83724 10.2093 9.8258 9.88914C9.81436 9.58037 9.52847 9.32878 9.2197 9.34022C8.91094 9.35165 8.65935 9.63755 8.67079 9.94632C8.69366 10.2665 8.96812 10.5181 9.27688 10.4952Z" fill="#9E9E9E"/>
<path opacity="0.7" d="M14.7539 10.4952C15.0627 10.4838 15.3143 10.2093 15.3029 9.88914C15.2914 9.58037 15.0055 9.32878 14.6968 9.34022C14.388 9.35165 14.1364 9.63755 14.1478 9.94632C14.1707 10.2665 14.4452 10.5181 14.7539 10.4952Z" fill="#9E9E9E"/>
<path opacity="0.7" d="M12.068 16.5343C12.3768 16.5 12.6055 16.2026 12.5826 15.8939C12.5483 15.5851 12.251 15.3449 11.9422 15.3792C11.6334 15.4136 11.3933 15.7109 11.4276 16.0196C11.4619 16.3399 11.7592 16.5686 12.068 16.5343Z" fill="#9E9E9E"/>
<path d="M15.0762 3.99968V2.8561C15.0762 2.52446 14.8018 2.25 14.4701 2.25C14.1613 2.25 13.9098 2.49015 13.8755 2.78748H10.1359C10.1016 2.49015 9.85005 2.25 9.54128 2.25C9.20964 2.25 8.93518 2.52446 8.93518 2.8561V3.99968C5.48157 5.25762 3 8.574 3 12.4622C3 17.4253 7.03684 21.4622 12 21.4622C16.9631 21.4622 21 17.4253 21 12.4622C21.0114 8.58544 18.5413 5.25762 15.0762 3.99968ZM12.0114 20.4444C7.62007 20.4444 4.04066 16.865 4.04066 12.4736C4.04066 8.08226 7.62007 4.50285 12.0114 4.50285C16.4028 4.50285 19.9822 8.08226 19.9822 12.4736C19.9822 16.865 16.4028 20.4444 12.0114 20.4444Z" fill="#9E9E9E"/>
</svg>
