<svg width="24" height="24" viewBox="0 0 24 24" fill="none" xmlns="http://www.w3.org/2000/svg">
<path d="M15.5971 4.48088C14.7042 3.57974 13.522 3.06717 12.2571 3.04236C10.9178 3.01756 9.66113 3.53014 8.71865 4.48088C7.81752 5.39028 7.32148 6.58904 7.31321 7.84567C7.30494 9.13537 7.80098 10.3507 8.71865 11.2766C9.61979 12.1943 10.8186 12.7068 12.0835 12.7234C12.1083 12.7234 12.1248 12.7234 12.1413 12.7234C14.8117 12.7234 16.9942 10.5573 16.9942 7.89527C16.9942 6.60557 16.4982 5.39028 15.5971 4.48088ZM14.1089 4.59662H14.1255C14.9357 4.59662 15.564 5.2332 15.564 6.03513C15.564 6.42369 15.4152 6.79572 15.1424 7.06854C14.8695 7.34136 14.514 7.49018 14.1255 7.49018H14.1172C13.3235 7.48191 12.6787 6.83706 12.6787 6.0434C12.6787 5.258 13.3153 4.60489 14.1089 4.59662ZM9.13202 5.02652C9.41311 4.74543 9.77687 4.59662 10.1654 4.59662H10.1737C10.9674 4.60489 11.6122 5.24974 11.6205 6.0434C11.6205 6.42369 11.4717 6.77919 11.1906 7.06028C10.9095 7.34137 10.5457 7.49844 10.1572 7.49844H10.1489C9.37177 7.49844 8.71039 6.83706 8.70212 6.05166C8.71039 5.67137 8.8592 5.30761 9.13202 5.02652ZM9.41311 10.0448C9.40484 10.0448 9.39657 10.0448 9.38831 10.0448C8.89227 10.0448 8.46237 9.62314 8.4541 9.11884C8.44583 8.86255 8.54504 8.6228 8.72692 8.43265C8.9088 8.25077 9.14029 8.15156 9.39657 8.15156C9.90915 8.15156 10.3308 8.57319 10.339 9.08577C10.339 9.59834 9.92568 10.0282 9.41311 10.0448ZM12.1744 11.8553H12.1579C11.3559 11.8553 10.7028 11.2105 10.7028 10.4168C10.7028 9.61488 11.3559 8.96176 12.1579 8.96176H12.1661C12.9515 8.96176 13.5964 9.60661 13.6046 10.4003C13.6046 11.1939 12.9681 11.847 12.1744 11.8553ZM14.9109 10.0448C14.9026 10.0448 14.8943 10.0448 14.8861 10.0448C14.3735 10.0448 13.9436 9.61488 13.9436 9.1023C13.9436 8.58973 14.3652 8.1681 14.8778 8.1681H14.8861C15.3986 8.1681 15.8203 8.58146 15.8285 9.09404C15.8451 9.59834 15.4317 10.0282 14.9109 10.0448Z" fill="#9E9E9E"/>
<path opacity="0.7" d="M10.182 6.45686C10.4052 6.44859 10.5871 6.25017 10.5788 6.01869C10.5706 5.79547 10.3639 5.61359 10.1407 5.62185C9.91745 5.63012 9.73556 5.8368 9.74383 6.06002C9.76037 6.29151 9.95878 6.47339 10.182 6.45686Z" fill="#9E9E9E"/>
<path opacity="0.7" d="M14.142 6.45686C14.3652 6.44859 14.5471 6.25017 14.5389 6.01869C14.5306 5.79547 14.3239 5.61359 14.1007 5.62185C13.8775 5.63012 13.6956 5.8368 13.7039 6.06002C13.7204 6.29151 13.9188 6.47339 14.142 6.45686Z" fill="#9E9E9E"/>
<path opacity="0.7" d="M12.1992 10.8217C12.4224 10.7969 12.5877 10.582 12.5712 10.3588C12.5464 10.1356 12.3315 9.96194 12.1082 9.98674C11.885 10.0115 11.7114 10.2265 11.7362 10.4497C11.761 10.6812 11.976 10.8465 12.1992 10.8217Z" fill="#9E9E9E"/>
<path d="M15.812 15.4849H8.49545C6.75105 15.4849 5.3208 16.9151 5.3208 18.6595V19.3457C5.3208 21.0901 6.75105 22.5204 8.49545 22.5204H15.812C17.5564 22.5204 18.9867 21.0901 18.9867 19.3457V18.6595C18.9784 16.9151 17.5564 15.4849 15.812 15.4849ZM9.37178 21.6192C9.37178 21.4787 9.33871 21.3547 9.26431 21.272C9.1403 21.1314 8.95842 21.1314 8.88401 21.1314C8.85921 21.1314 8.83441 21.1314 8.80961 21.1314C8.79307 21.1314 8.76827 21.1314 8.75173 21.1314C8.7352 21.1314 8.71866 21.1314 8.70213 21.1314C8.67733 21.1314 8.66079 21.1314 8.63599 21.1314C8.56985 21.1314 8.38797 21.1314 8.26396 21.272C8.18956 21.3629 8.15649 21.4787 8.16476 21.6192C8.15649 21.6192 8.14822 21.611 8.13995 21.611C6.71798 21.272 5.7755 19.8996 5.99045 18.4776C6.2054 17.0887 7.38763 16.0801 8.80961 16.0801C8.89228 16.0801 8.96668 16.0801 9.04936 16.0884C10.4548 16.1959 11.5544 17.4112 11.5626 18.8579C11.5709 20.1972 10.6697 21.3299 9.37178 21.6192ZM16.151 21.6192C16.151 21.4787 16.1179 21.3547 16.0435 21.272C15.9195 21.1314 15.7376 21.1314 15.6632 21.1314C15.6384 21.1314 15.6136 21.1314 15.5888 21.1314C15.5723 21.1314 15.5475 21.1314 15.5309 21.1314C15.5144 21.1314 15.4979 21.1314 15.4813 21.1314C15.4565 21.1314 15.44 21.1314 15.4152 21.1314C15.349 21.1314 15.1672 21.1314 15.0432 21.272C14.9688 21.3629 14.9357 21.4787 14.9439 21.6192C14.9357 21.6192 14.9274 21.611 14.9191 21.611C13.4972 21.272 12.5547 19.8996 12.7696 18.4776C12.9846 17.0887 14.1668 16.0801 15.5888 16.0801C15.6715 16.0801 15.7459 16.0801 15.8286 16.0884C17.234 16.1959 18.3335 17.4112 18.3418 18.8579C18.3501 20.1972 17.4489 21.3299 16.151 21.6192Z" fill="#9E9E9E"/>
<path opacity="0.7" d="M8.75997 19.7341C9.24396 19.7341 9.63631 19.3418 9.63631 18.8578C9.63631 18.3738 9.24396 17.9814 8.75997 17.9814C8.27599 17.9814 7.88364 18.3738 7.88364 18.8578C7.88364 19.3418 8.27599 19.7341 8.75997 19.7341Z" fill="#9E9E9E"/>
<path opacity="0.7" d="M15.5475 19.7341C16.0315 19.7341 16.4238 19.3418 16.4238 18.8578C16.4238 18.3738 16.0315 17.9814 15.5475 17.9814C15.0635 17.9814 14.6711 18.3738 14.6711 18.8578C14.6711 19.3418 15.0635 19.7341 15.5475 19.7341Z" fill="#9E9E9E"/>
<path d="M16.0435 14.0131H14.3156C17.0273 13.0458 18.9288 10.3341 18.6229 7.2339C18.3831 4.74544 16.6553 2.66207 14.3983 1.81054V0.438167C14.3983 0.198415 14.1999 0 13.9601 0C13.7369 0 13.555 0.173614 13.5302 0.388564H10.8268C10.802 0.173614 10.6201 0 10.3969 0C10.1572 0 9.95875 0.198415 9.95875 0.438167V1.7692C7.44549 2.67034 5.64321 5.06786 5.64321 7.88701C5.64321 10.7144 7.46202 13.1202 9.98355 14.0131H8.25568C5.76722 14.0131 3.75 16.0303 3.75 18.5188V19.4943C3.75 21.9828 5.76722 24 8.25568 24H16.0435C18.5319 24 20.5492 21.9828 20.5492 19.4943V18.5188C20.5492 16.0303 18.5319 14.0131 16.0435 14.0131ZM19.8134 19.4943C19.8134 21.5694 18.1186 23.2642 16.0435 23.2642H8.25568C6.18059 23.2642 4.48579 21.5694 4.48579 19.4943V18.5188C4.48579 16.4437 6.18059 14.7489 8.25568 14.7489H10.9839C11.1327 14.7323 11.2484 14.6166 11.2484 14.4595V13.8147C11.2484 13.6659 11.1327 13.5419 10.9839 13.5253V13.5171C8.36316 12.9714 6.379 10.6731 6.379 7.88701C6.379 4.7041 8.96667 2.11643 12.1496 2.11643C15.3325 2.11643 17.9202 4.7041 17.9202 7.88701C17.9202 10.6648 15.936 12.9879 13.3153 13.5336C13.1665 13.5501 13.0507 13.6659 13.0507 13.8229V14.4678C13.0507 14.6166 13.1665 14.7323 13.307 14.7489H16.0435C18.1186 14.7489 19.8134 16.4437 19.8134 18.5188V19.4943Z" fill="#9E9E9E"/>
</svg>
