<svg width="176" height="40" viewBox="0 0 176 40" fill="none" xmlns="http://www.w3.org/2000/svg">
<path d="M38.0188 27.854C35.6911 27.854 33.7798 27.0927 32.2606 25.5702C30.7415 24.0476 29.9941 22.1747 29.9941 19.9392C29.9941 17.6916 30.7537 15.8066 32.2606 14.2961C33.7798 12.7857 35.6911 12.0244 38.0188 12.0244C39.4155 12.0244 40.7019 12.3507 41.8903 12.9911C43.0787 13.6315 43.9976 14.5137 44.6591 15.6132L42.0374 17.1116C41.6575 16.4349 41.1062 15.9033 40.4079 15.5166C39.6973 15.1299 38.9132 14.9366 38.0311 14.9366C36.5364 14.9366 35.3235 15.3957 34.4047 16.3262C33.4858 17.2566 33.0325 18.4529 33.0325 19.9392C33.0325 21.4013 33.4858 22.5976 34.4047 23.528C35.3235 24.4585 36.5364 24.9177 38.0311 24.9177C38.9132 24.9177 39.7096 24.7243 40.4201 24.3376C41.1307 23.951 41.6698 23.4314 42.0374 22.7668L44.6591 24.2651C43.9976 25.3648 43.0787 26.2468 41.9026 26.8873C40.7264 27.5398 39.4277 27.854 38.0188 27.854Z" fill="#202223"/>
<path d="M57.7309 12.3262H60.7574V27.5516H57.7309V21.2439H51.9973V27.5516H48.959V12.3262H51.9973V18.368H57.7309V12.3262Z" fill="#202223"/>
<path d="M75.9744 27.2254L75.0435 24.4824H68.8931L67.9622 27.2254H64.6787L70.0815 12H73.8551L79.2828 27.2254H75.9744ZM69.8614 21.679H74.1001L71.9807 15.4559L69.8614 21.679Z" fill="#202223"/>
<path d="M91.6677 27.5516L88.5563 22.271H86.2406V27.5516H83.2021V12.3262H89.3769C90.7979 12.3262 92.0112 12.8216 93.0157 13.8004C94.0202 14.7913 94.5103 15.9755 94.5103 17.3651C94.5103 18.3076 94.2409 19.1776 93.6891 19.9872C93.1504 20.7968 92.4277 21.401 91.533 21.7997L94.9511 27.5395H91.6677V27.5516ZM86.253 15.1296V19.6368H89.3893C89.9648 19.6368 90.4549 19.4193 90.8714 18.9722C91.288 18.5251 91.4843 17.9934 91.4843 17.3772C91.4843 16.7488 91.2761 16.2292 90.8714 15.7942C90.4549 15.3592 89.9648 15.1417 89.3893 15.1417H86.253V15.1296Z" fill="#202223"/>
<path d="M114.15 19.371V20.5432C114.15 22.7182 113.44 24.4824 112.031 25.8237C110.622 27.1771 108.796 27.8417 106.567 27.8417C104.19 27.8417 102.205 27.0804 100.649 25.5458C99.0807 24.0111 98.2969 22.1503 98.2969 19.9389C98.2969 17.7156 99.0688 15.8426 100.624 14.308C102.181 12.7733 104.104 12 106.395 12C107.84 12 109.152 12.3262 110.34 12.9667C111.529 13.6071 112.46 14.4771 113.121 15.5405L110.524 17.0147C110.156 16.3863 109.605 15.8789 108.857 15.4922C108.11 15.1055 107.289 14.9001 106.383 14.9001C104.912 14.9001 103.7 15.3713 102.756 16.3259C101.813 17.2806 101.335 18.4768 101.335 19.9269C101.335 21.3648 101.813 22.549 102.781 23.4794C103.749 24.4099 105.023 24.8812 106.603 24.8812C107.779 24.8812 108.747 24.6274 109.519 24.1078C110.291 23.5882 110.818 22.8873 111.1 21.9932H106.419V19.3348H114.15V19.371Z" fill="#202223"/>
<path d="M121.771 24.6874H128.277V27.5633H118.732V12.3379H128.166V15.2138H121.771V18.4522H127.615V21.2798H121.771V24.6874Z" fill="#202223"/>
<path d="M136.545 25.6424H143.21V27.5516H134.499V12.3262H136.545V25.6424Z" fill="#202223"/>
<path d="M158.292 27.5516L157.03 24.1319H150.083L148.822 27.5516H146.641L152.399 12.3262H154.715L160.473 27.5516H158.292ZM150.794 22.2469H156.331L153.55 14.7429L150.794 22.2469Z" fill="#202223"/>
<path d="M173.557 19.6606C174.268 19.9989 174.819 20.4702 175.248 21.0985C175.665 21.7269 175.873 22.4398 175.873 23.2494C175.873 24.4699 175.444 25.4849 174.574 26.3187C173.704 27.1404 172.651 27.5633 171.401 27.5633H164.736V12.3379H170.911C172.111 12.3379 173.141 12.7366 173.974 13.5341C174.807 14.3317 175.236 15.3226 175.236 16.4947C175.236 17.8359 174.672 18.8872 173.557 19.6606ZM170.911 14.2229H166.782V18.8752H170.911C171.56 18.8752 172.099 18.6455 172.54 18.1985C172.981 17.7514 173.202 17.1955 173.202 16.543C173.202 15.9026 172.981 15.3588 172.528 14.8996C172.075 14.4526 171.536 14.2229 170.911 14.2229ZM171.389 25.6661C172.075 25.6661 172.663 25.4245 173.128 24.9532C173.594 24.4699 173.839 23.8898 173.839 23.189C173.839 22.5123 173.594 21.9323 173.128 21.449C172.651 20.9656 172.075 20.736 171.401 20.736H166.782V25.6783H171.389V25.6661Z" fill="#202223"/>
<path d="M21.7541 16.5658C19.1323 16.5658 16.5227 16.5658 13.9009 16.5658C14.2807 14.5237 14.6605 12.4936 15.0403 10.4515C15.5058 7.97432 15.9591 5.50924 16.4247 3.03209C16.4247 3.03209 16.4247 3.03209 16.4247 3.02001C16.5962 2.08956 15.4568 1.6183 14.8933 2.37957C13.8764 3.78128 12.8718 5.18299 11.8549 6.58465C9.79669 9.43643 7.7384 12.2881 5.68016 15.1278C4.43053 16.8558 3.19313 18.5716 1.94348 20.2996C1.55143 20.8434 1.14713 21.3992 0.755085 21.943C0.54681 22.233 0.338535 22.523 0.13026 22.813C-0.249535 23.3326 0.265027 24.0576 0.853096 24.0576C3.47491 24.0576 6.08445 24.0576 8.70628 24.0576C8.3265 26.0998 7.94671 28.1298 7.56693 30.172C7.10135 32.6491 6.64805 35.1142 6.18247 37.5913C6.18247 37.5913 6.18247 37.5913 6.18247 37.6034C6.01094 38.5338 7.15035 39.0051 7.71389 38.2438C8.73079 36.8421 9.7354 35.4404 10.7523 34.0387C12.8105 31.187 14.8688 28.3352 16.927 25.4956C18.1767 23.7676 19.414 22.0517 20.6637 20.3238C21.0558 19.78 21.4601 19.2242 21.8521 18.6804C22.0604 18.3904 22.2686 18.1004 22.477 17.8104C22.8567 17.2787 22.3422 16.5658 21.7541 16.5658Z" fill="#18A0D7"/>
</svg>
