<svg width="40" height="40" viewBox="0 0 40 40" fill="none" xmlns="http://www.w3.org/2000/svg">
<path d="M26.8516 23.8438H13.6574C10.5116 23.8438 7.93242 26.423 7.93242 29.5687V30.8061C7.93242 33.9519 10.5116 36.5311 13.6574 36.5311H26.8516C29.9973 36.5311 32.5766 33.9519 32.5766 30.8061V29.5687C32.5617 26.423 29.9973 23.8438 26.8516 23.8438ZM15.2377 34.9061C15.2377 34.6526 15.1781 34.429 15.0439 34.2799C14.8203 34.0264 14.4923 34.0264 14.3581 34.0264C14.3134 34.0264 14.2686 34.0264 14.2239 34.0264C14.1941 34.0264 14.1494 34.0264 14.1195 34.0264C14.0897 34.0264 14.0599 34.0264 14.0301 34.0264C13.9854 34.0264 13.9555 34.0264 13.9108 34.0264C13.7916 34.0264 13.4636 34.0264 13.2399 34.2799C13.1058 34.4439 13.0461 34.6526 13.061 34.9061C13.0461 34.9061 13.0312 34.8911 13.0163 34.8911C10.452 34.2799 8.7524 31.805 9.14003 29.2407C9.52765 26.7361 11.6596 24.9172 14.2239 24.9172C14.373 24.9172 14.5072 24.9172 14.6563 24.9321C17.1907 25.1259 19.1736 27.3175 19.1885 29.9265C19.2034 32.3417 17.5784 34.3842 15.2377 34.9061ZM27.4629 34.9061C27.4629 34.6526 27.4032 34.429 27.2691 34.2799C27.0454 34.0264 26.7174 34.0264 26.5833 34.0264C26.5385 34.0264 26.4938 34.0264 26.4491 34.0264C26.4193 34.0264 26.3745 34.0264 26.3447 34.0264C26.3149 34.0264 26.2851 34.0264 26.2553 34.0264C26.2105 34.0264 26.1807 34.0264 26.136 34.0264C26.0167 34.0264 25.6887 34.0264 25.4651 34.2799C25.3309 34.4439 25.2713 34.6526 25.2862 34.9061C25.2713 34.9061 25.2564 34.8911 25.2415 34.8911C22.6772 34.2799 20.9776 31.805 21.3652 29.2407C21.7528 26.7361 23.8848 24.9172 26.4491 24.9172C26.5982 24.9172 26.7323 24.9172 26.8814 24.9321C29.4159 25.1259 31.3988 27.3175 31.4137 29.9265C31.4286 32.3417 29.8035 34.3842 27.4629 34.9061Z" fill="black" fill-opacity="0.87"/>
<path opacity="0.7" d="M14.1343 31.5068C15.0071 31.5068 15.7147 30.7993 15.7147 29.9265C15.7147 29.0537 15.0071 28.3462 14.1343 28.3462C13.2615 28.3462 12.554 29.0537 12.554 29.9265C12.554 30.7993 13.2615 31.5068 14.1343 31.5068Z" fill="black" fill-opacity="0.87"/>
<path opacity="0.7" d="M26.3745 31.5068C27.2473 31.5068 27.9548 30.7993 27.9548 29.9265C27.9548 29.0537 27.2473 28.3462 26.3745 28.3462C25.5017 28.3462 24.7942 29.0537 24.7942 29.9265C24.7942 30.7993 25.5017 31.5068 26.3745 31.5068Z" fill="black" fill-opacity="0.87"/>
<path opacity="0.7" d="M20.0381 10.8607C20.4139 10.819 20.6923 10.4577 20.6645 10.0825C20.6227 9.70725 20.2608 9.41541 19.885 9.4571C19.5092 9.49879 19.217 9.86012 19.2587 10.2353C19.3005 10.6245 19.6623 10.9024 20.0381 10.8607Z" fill="black" fill-opacity="0.87"/>
<path opacity="0.7" d="M22.6063 6.73113C22.8847 6.70025 23.0909 6.4326 23.0703 6.15466C23.0393 5.87671 22.7713 5.66054 22.4929 5.69142C22.2145 5.7223 21.998 5.98995 22.0289 6.26789C22.0598 6.55613 22.3279 6.76202 22.6063 6.73113Z" fill="black" fill-opacity="0.87"/>
<path opacity="0.7" d="M17.4298 6.73113C17.7082 6.70025 17.9144 6.4326 17.8938 6.15466C17.8629 5.87671 17.5948 5.66054 17.3164 5.69142C17.038 5.7223 16.8215 5.98995 16.8524 6.26789C16.8834 6.55613 17.1514 6.76202 17.4298 6.73113Z" fill="black" fill-opacity="0.87"/>
<path fill-rule="evenodd" clip-rule="evenodd" d="M19.9723 18.9512C24.9455 18.9512 28.9771 15.1433 28.9771 10.446C28.9771 8.07933 28.5098 6.38089 26.8582 4.83904C25.5169 3.58687 25.3215 3.58942 22.302 3.62881C21.66 3.63718 20.8903 3.64722 19.9548 3.64722C19.0193 3.64722 18.2496 3.63718 17.6076 3.62881C14.5882 3.58942 14.3927 3.58687 13.0514 4.83904C11.3998 6.38089 10.9675 8.07933 10.9675 10.446C10.9675 15.1433 14.9991 18.9512 19.9723 18.9512ZM19.9607 12.2507C21.1157 12.2507 22.0521 11.3143 22.0521 10.1593C22.0521 9.00419 21.1157 8.06781 19.9607 8.06781C18.8056 8.06781 17.8692 9.00419 17.8692 10.1593C17.8692 11.3143 18.8056 12.2507 19.9607 12.2507ZM18.7319 6.21165C18.7319 6.96245 18.1233 7.57109 17.3725 7.57109C16.6217 7.57109 16.0131 6.96245 16.0131 6.21165C16.0131 5.46085 16.6217 4.85221 17.3725 4.85221C18.1233 4.85221 18.7319 5.46085 18.7319 6.21165ZM22.5488 7.57109C23.2996 7.57109 23.9083 6.96245 23.9083 6.21165C23.9083 5.46085 23.2996 4.85221 22.5488 4.85221C21.798 4.85221 21.1894 5.46085 21.1894 6.21165C21.1894 6.96245 21.798 7.57109 22.5488 7.57109Z" fill="black" fill-opacity="0.87"/>
<path fill-rule="evenodd" clip-rule="evenodd" d="M31.9864 10.2981C31.9864 14.5835 29.5374 18.2586 25.9527 20.2214C25.3033 20.6074 24.6142 20.9329 23.8933 21.1901H27.0092C31.4967 21.1901 35.1345 24.8278 35.1345 29.3153V31.0746C35.1345 35.5621 31.4967 39.1998 27.0092 39.1998H12.9652C8.47765 39.1998 4.83992 35.5621 4.83992 31.0746V29.3153C4.83992 24.8278 8.47765 21.1901 12.9652 21.1901H16.0811C15.5426 20.9994 15.0219 20.7705 14.5223 20.5065C10.6383 18.6296 7.93476 14.8008 7.93476 10.2981C7.93476 7.30913 8.49877 4.838 10.853 2.64023C11.3168 2.20722 11.7791 1.78913 12.298 1.47957C12.8722 1.13702 13.4496 0.962103 14.12 0.877361C14.7374 0.79932 15.4713 0.79466 16.3534 0.802554C16.6302 0.805031 16.9263 0.808898 17.2473 0.813089C17.9894 0.822778 18.8643 0.834201 19.9402 0.834201C21.0162 0.834201 21.8911 0.822778 22.6332 0.813089C22.9542 0.808898 23.2503 0.805031 23.5271 0.802554C24.4092 0.79466 25.1431 0.79932 25.7605 0.877361C26.431 0.962102 27.0083 1.13702 27.5826 1.47957C28.1015 1.78913 28.5637 2.20722 29.0276 2.64023C31.37 4.82701 31.9864 7.28641 31.9864 10.2981ZM17.8997 19.9835V19.9834C13.1113 19.0795 9.50335 15.0868 9.50335 10.2981C9.50335 7.54976 10.0054 5.57737 11.9234 3.78683C13.481 2.3327 13.708 2.33566 17.2145 2.3814L17.2146 2.3814C17.9601 2.39113 18.8539 2.40279 19.9402 2.40279C21.0266 2.40279 21.9204 2.39113 22.6659 2.3814C26.1724 2.33566 26.3995 2.3327 27.9572 3.78683C29.8752 5.57737 30.4178 7.54976 30.4178 10.2981C30.4178 14.7327 27.3237 18.4847 23.0632 19.7332C22.7896 19.8121 22.511 19.8812 22.2277 19.9402C21.9557 19.9834 21.5806 20.2206 21.5785 20.5028C21.5785 20.5037 21.5785 20.5045 21.5785 20.5053V22.0101C21.5785 22.2784 21.7872 22.4871 22.0407 22.517H27.0092C30.7513 22.517 33.8076 25.5732 33.8076 29.3153V31.0746C33.8076 34.8167 30.7513 37.873 27.0092 37.873H12.9652C9.22309 37.873 6.1668 34.8167 6.1668 31.0746V29.3153C6.1668 25.5732 9.22309 22.517 12.9652 22.517H17.8997C18.168 22.4871 18.3768 22.2784 18.3768 21.9951V20.5028C18.3768 20.2345 18.168 20.0133 17.8997 19.9835Z" fill="black" fill-opacity="0.87"/>
</svg>
