<svg width="20" height="20" viewBox="0 0 20 20" fill="none" xmlns="http://www.w3.org/2000/svg">
<path fill-rule="evenodd" clip-rule="evenodd" d="M1.6665 9.99984C1.6665 5.39984 5.39984 1.6665 9.99984 1.6665C14.5998 1.6665 18.3332 5.39984 18.3332 9.99984C18.3332 14.5998 14.5998 18.3332 9.99984 18.3332C5.39984 18.3332 1.6665 14.5998 1.6665 9.99984ZM4.74984 10.5832L7.7415 13.5748C8.0665 13.8998 8.59984 13.8998 8.9165 13.5748L15.2415 7.24984C15.5665 6.92484 15.5665 6.39984 15.2415 6.07484C14.9165 5.74984 14.3915 5.74984 14.0665 6.07484L8.33317 11.8082L5.92484 9.40817C5.59984 9.08317 5.07484 9.08317 4.74984 9.40817C4.59379 9.56386 4.5061 9.77524 4.5061 9.99567C4.5061 10.2161 4.59379 10.4275 4.74984 10.5832Z" fill="#7CB342"/>
</svg>
