<svg width="20" height="20" viewBox="0 0 20 20" fill="none" xmlns="http://www.w3.org/2000/svg">
<path d="M14.4958 5.96918C13.345 4.80773 11.8213 4.14709 10.191 4.11512C8.46477 4.08316 6.84514 4.7438 5.63041 5.96918C4.46896 7.14128 3.82963 8.68633 3.81898 10.306C3.80832 11.9682 4.44765 13.5346 5.63041 14.728C6.79186 15.9108 8.33691 16.5714 9.9672 16.5927C9.99917 16.5927 10.0205 16.5927 10.0418 16.5927C13.4835 16.5927 16.2966 13.801 16.2966 10.3699C16.2966 8.70764 15.6572 7.14128 14.4958 5.96918ZM12.5778 6.11836H12.5991C13.6433 6.11836 14.4532 6.93883 14.4532 7.97241C14.4532 8.47322 14.2614 8.95272 13.9097 9.30435C13.5581 9.65598 13.0999 9.84778 12.5991 9.84778H12.5885C11.5655 9.83713 10.7344 9.006 10.7344 7.98307C10.7344 6.9708 11.5549 6.12901 12.5778 6.11836ZM6.16319 6.67244C6.52547 6.31016 6.99432 6.11836 7.49512 6.11836H7.50578C8.52871 6.12901 9.35984 6.96014 9.37049 7.98307C9.37049 8.47322 9.17869 8.93141 8.81641 9.2937C8.45412 9.65598 7.98528 9.85844 7.48447 9.85844H7.47381C6.4722 9.85844 5.61976 9.006 5.6091 7.99372C5.61976 7.50357 5.81156 7.03473 6.16319 6.67244ZM6.52547 13.1403C6.51482 13.1403 6.50416 13.1403 6.49351 13.1403C5.85418 13.1403 5.30009 12.5969 5.28944 11.9469C5.27878 11.6166 5.40665 11.3076 5.64107 11.0625C5.87549 10.8281 6.17384 10.7002 6.50416 10.7002C7.1648 10.7002 7.70823 11.2437 7.71889 11.9043C7.71889 12.5649 7.18612 13.119 6.52547 13.1403ZM10.0844 15.4739H10.0631C9.02952 15.4739 8.18773 14.6428 8.18773 13.6198C8.18773 12.5862 9.02952 11.7445 10.0631 11.7445H10.0738C11.086 11.7445 11.9172 12.5756 11.9278 13.5985C11.9278 14.6214 11.1073 15.4632 10.0844 15.4739ZM13.6114 13.1403C13.6007 13.1403 13.5901 13.1403 13.5794 13.1403C12.9188 13.1403 12.3647 12.5862 12.3647 11.9256C12.3647 11.265 12.9081 10.7215 13.5688 10.7215H13.5794C14.2401 10.7215 14.7835 11.2543 14.7941 11.915C14.8154 12.5649 14.2827 13.119 13.6114 13.1403Z" fill="#4E5968"/>
<path opacity="0.7" d="M7.51651 8.51601C7.80421 8.50536 8.03863 8.24962 8.02797 7.95127C8.01732 7.66357 7.75093 7.42915 7.46323 7.4398C7.17553 7.45046 6.94111 7.71685 6.95177 8.00455C6.97308 8.3029 7.22881 8.53732 7.51651 8.51601Z" fill="#4E5968"/>
<path opacity="0.7" d="M12.6203 8.51601C12.908 8.50536 13.1424 8.24962 13.1317 7.95127C13.1211 7.66357 12.8547 7.42915 12.567 7.4398C12.2793 7.45046 12.0449 7.71685 12.0555 8.00455C12.0768 8.3029 12.3326 8.53732 12.6203 8.51601Z" fill="#4E5968"/>
<path opacity="0.7" d="M10.1162 14.142C10.4039 14.11 10.617 13.833 10.5957 13.5453C10.5638 13.2576 10.2867 13.0338 9.99902 13.0658C9.71132 13.0978 9.48756 13.3748 9.51952 13.6625C9.55149 13.9609 9.82854 14.174 10.1162 14.142Z" fill="#4E5968"/>
<path d="M12.9187 2.46354V1.39799C12.9187 1.08898 12.663 0.833252 12.354 0.833252C12.0663 0.833252 11.8319 1.05702 11.7999 1.33406H8.31554C8.28357 1.05702 8.04915 0.833252 7.76145 0.833252C7.45244 0.833252 7.19671 1.08898 7.19671 1.39799V2.46354C3.97875 3.63565 1.6665 6.72575 1.6665 10.3486C1.6665 14.9731 5.4279 18.7345 10.0524 18.7345C14.6769 18.7345 18.4383 14.9731 18.4383 10.3486C18.4489 6.7364 16.1473 3.63565 12.9187 2.46354ZM10.063 17.7862C5.97133 17.7862 2.63615 14.451 2.63615 10.3593C2.63615 6.26756 5.97133 2.93239 10.063 2.93239C14.1548 2.93239 17.4899 6.26756 17.4899 10.3593C17.4899 14.451 14.1548 17.7862 10.063 17.7862Z" fill="#4E5968"/>
</svg>