<svg width="14" height="14" viewBox="0 0 14 14" fill="none" xmlns="http://www.w3.org/2000/svg">
<path d="M11.1666 13.6668H1.99992C1.07944 13.6668 0.333252 12.9206 0.333252 12.0002V2.8335C0.333252 1.91302 1.07944 1.16683 1.99992 1.16683H4.49992C4.96016 1.16683 5.33325 1.53993 5.33325 2.00016V2.00016C5.33325 2.4604 4.96016 2.8335 4.49992 2.8335H1.99992V12.0002H11.1666V9.50016C11.1666 9.03993 11.5397 8.66683 11.9999 8.66683V8.66683C12.4602 8.66683 12.8333 9.03993 12.8333 9.50016V12.0002C12.8333 12.9206 12.0871 13.6668 11.1666 13.6668ZM7.33927 7.83406C7.01386 8.15906 6.48652 8.15852 6.16177 7.83285V7.83285C5.83753 7.50768 5.8379 6.98135 6.16261 6.65664L10.8191 2.00016H8.66659C8.20635 2.00016 7.83325 1.62707 7.83325 1.16683V1.16683C7.83325 0.706592 8.20635 0.333496 8.66659 0.333496H12.6666C13.2189 0.333496 13.6666 0.781211 13.6666 1.3335V5.3335C13.6666 5.79373 13.2935 6.16683 12.8333 6.16683V6.16683C12.373 6.16683 11.9999 5.79373 11.9999 5.3335V3.17933L7.33927 7.83406Z" fill="#B0B8C1"/>
</svg>
