<svg width="25" height="24" viewBox="0 0 25 24" fill="none" xmlns="http://www.w3.org/2000/svg">
<mask id="mask0_4312_87734" style="mask-type:alpha" maskUnits="userSpaceOnUse" x="2" y="2" width="21" height="20">
<path d="M13.498 22H11.498V19H13.498V22ZM18.862 19.778L16.741 17.657L18.155 16.243L20.277 18.365L18.864 19.778H18.862ZM6.13405 19.778L4.71905 18.364L6.83905 16.242L8.25405 17.656L6.13405 19.778ZM12.498 17.007C9.73302 17.0059 7.49231 14.7637 7.49305 11.9987C7.49378 9.23364 9.73568 6.99263 12.5007 6.993C15.2657 6.99337 17.507 9.23497 17.507 12C17.5043 14.7649 15.263 17.0053 12.498 17.007ZM12.498 8.993C10.8376 8.9941 9.49231 10.3409 9.49305 12.0013C9.49378 13.6618 10.8403 15.0074 12.5007 15.007C14.1612 15.0066 15.507 13.6605 15.507 12C15.5054 10.3392 14.1589 8.99355 12.498 8.993ZM22.498 13H2.49805V11H22.498V13ZM18.154 7.758L16.741 6.343L18.862 4.221L20.277 5.636L18.155 7.757L18.154 7.758ZM6.84105 7.758L4.72105 5.637L6.13605 4.223L8.25605 6.345L6.84205 7.757L6.84105 7.758ZM13.498 5H11.498V2H13.498V5Z" fill="#2E3A59"/>
</mask>
<g mask="url(#mask0_4312_87734)">
<rect x="0.5" width="24" height="13" fill="#2E3A59"/>
</g>
</svg>
