<svg width="32" height="32" viewBox="0 0 32 32" fill="none" xmlns="http://www.w3.org/2000/svg">
<g clip-path="url(#clip0_1116_27262)">
<circle cx="16.0002" cy="16.0002" r="12.8" fill="#E53935"/>
</g>
<g clip-path="url(#clip1_1116_27262)">
<path d="M15.9999 22.5999C16.8099 22.5999 17.4665 21.9432 17.4665 21.1332C17.4665 20.3232 16.8099 19.6666 15.9999 19.6666C15.1899 19.6666 14.5332 20.3232 14.5332 21.1332C14.5332 21.9432 15.1899 22.5999 15.9999 22.5999Z" fill="white"/>
<path d="M15.9999 9.40002C15.1932 9.40002 14.5332 10.06 14.5332 10.8667V16.7334C14.5332 17.54 15.1932 18.2 15.9999 18.2C16.8065 18.2 17.4665 17.54 17.4665 16.7334V10.8667C17.4665 10.06 16.8065 9.40002 15.9999 9.40002Z" fill="white"/>
</g>
<defs>
<clipPath id="clip0_1116_27262">
<rect width="25.6" height="25.6" fill="white" transform="translate(3.2002 3.2002)"/>
</clipPath>
<clipPath id="clip1_1116_27262">
<rect width="17.6" height="17.6" fill="white" transform="translate(7.2002 7.20001)"/>
</clipPath>
</defs>
</svg>
