<svg width="21" height="20" viewBox="0 0 21 20" fill="none" xmlns="http://www.w3.org/2000/svg">
<path fill-rule="evenodd" clip-rule="evenodd" d="M16.748 14.9971C16.6656 14.9989 16.5829 14.9999 16.5 14.9999C10.4249 14.9999 5.5 10.075 5.5 3.99987C5.5 3.91697 5.50092 3.83428 5.50275 3.7518C3.67211 5.21839 2.5 7.47327 2.5 9.99984C2.5 14.4181 6.08172 17.9998 10.5 17.9998C13.0266 17.9998 15.2814 16.8277 16.748 14.9971ZM17.9661 12.881C17.489 12.9592 16.9992 12.9999 16.5 12.9999C11.5294 12.9999 7.5 8.97043 7.5 3.99987C7.5 3.50062 7.54065 3.01086 7.61882 2.53373C7.75094 1.72732 7.99024 0.956975 8.32162 0.237793C7.46026 0.429154 6.64073 0.731607 5.87882 1.12934C2.68215 2.79809 0.5 6.14413 0.5 9.99984C0.5 15.5227 4.97715 19.9998 10.5 19.9998C14.3557 19.9998 17.7017 17.8177 19.3705 14.6211C19.7682 13.8592 20.0707 13.0396 20.262 12.1783C19.5429 12.5096 18.7725 12.7489 17.9661 12.881Z" fill="#202223"/>
</svg>
