<svg width="36" height="36" viewBox="0 0 36 36" fill="none" xmlns="http://www.w3.org/2000/svg">
<path d="M29.8199 27.7051C30.5399 26.5501 30.9449 25.2001 30.8549 23.7151C30.6599 20.4901 28.0949 17.7601 24.8999 17.4151C20.8199 16.9651 17.3699 20.1301 17.3699 24.1201C17.3699 27.8551 20.3849 30.8701 24.1049 30.8701C25.4249 30.8701 26.6549 30.4801 27.6899 29.8201L31.3049 33.4351C31.8899 34.0201 32.8499 34.0201 33.4349 33.4351C34.0199 32.8501 34.0199 31.8901 33.4349 31.3051L29.8199 27.7051ZM24.1199 27.8701C22.0499 27.8701 20.3699 26.1901 20.3699 24.1201C20.3699 22.0501 22.0499 20.3701 24.1199 20.3701C26.1899 20.3701 27.8699 22.0501 27.8699 24.1201C27.8699 26.1901 26.1899 27.8701 24.1199 27.8701ZM23.5799 15.1201C22.4699 15.1501 21.4049 15.3901 20.4299 15.7951L19.6049 14.5501L14.9849 22.0651C14.4449 22.9351 13.2299 23.0251 12.5699 22.2601L9.38986 18.5551L4.79986 25.9051C4.33486 26.6401 3.34486 26.8351 2.63986 26.3251C2.00986 25.8601 1.82986 24.9901 2.24986 24.3151L7.91986 15.2401C8.45986 14.3851 9.67486 14.2951 10.3349 15.0601L13.4999 18.7501L18.2699 10.9951C18.8399 10.0651 20.1899 10.0351 20.7899 10.9501L23.5799 15.1201ZM27.4649 15.8701C26.5049 15.4501 25.4699 15.1951 24.3899 15.1351L31.1999 4.35008C31.6649 3.61508 32.6549 3.43508 33.3449 3.94508C33.9899 4.41008 34.1549 5.29508 33.7349 5.95508L27.4649 15.8701Z" fill="#4E5968"/>
</svg>
