<svg width="24" height="24" viewBox="0 0 24 24" fill="none" xmlns="http://www.w3.org/2000/svg">
<path fill-rule="evenodd" clip-rule="evenodd" d="M20 4H4C2.89 4 2.01 4.89 2.01 6L2 18C2 19.11 2.89 20 4 20H20C21.11 20 22 19.11 22 18V6C22 4.89 21.11 4 20 4ZM20 17C20 17.55 19.55 18 19 18H5C4.45 18 4 17.55 4 17V7C4 6.45 4.45 6 5 6H19C19.55 6 20 6.45 20 7V17ZM12 8.99999C12 9.54999 11.55 9.99999 11 9.99999H8V11H11C11.55 11 12 11.45 12 12V15C12 15.55 11.55 16 11 16H10C10 16.55 9.55 17 9 17C8.45 17 8 16.55 8 16H7C6.45 16 6 15.55 6 15C6 14.45 6.45 14 7 14H10V13H7C6.45 13 6 12.55 6 12V8.99999C6 8.44999 6.45 7.99999 7 7.99999H8V7.98999C8 7.43999 8.45 6.98999 9 6.98999C9.55 6.98999 10 7.43999 10 7.98999V7.99999H11C11.55 7.99999 12 8.44999 12 8.99999Z" fill="#18A0D7"/>
<path d="M14.743 10L17.257 10C17.4487 10 17.5652 9.82849 17.4608 9.6964L16.2038 8.09167C16.1092 7.96944 15.8908 7.96944 15.7937 8.09167L14.5392 9.6964C14.4348 9.82849 14.5513 10 14.743 10Z" fill="#18A0D7"/>
<path d="M17.257 14L14.743 14C14.5513 14 14.4348 14.1715 14.5392 14.3036L15.7962 15.9083C15.8908 16.0306 16.1092 16.0306 16.2063 15.9083L17.4608 14.3036C17.5652 14.1715 17.4487 14 17.257 14Z" fill="#18A0D7"/>
</svg>
