<svg width="16" height="16" viewBox="0 0 16 16" fill="none" xmlns="http://www.w3.org/2000/svg">
<path d="M7.99969 3.33352V1.47352C7.99969 1.17352 7.63969 1.02685 7.43303 1.24018L4.89969 3.76685C4.76636 3.90018 4.76636 4.10685 4.89969 4.24018L7.42636 6.76685C7.63969 6.97352 7.99969 6.82685 7.99969 6.52685V4.66685C10.4864 4.66685 12.453 6.94685 11.9064 9.52685C11.593 11.0402 10.3664 12.2602 8.85969 12.5735C6.47969 13.0735 4.35969 11.4402 4.03969 9.23352C3.99303 8.91352 3.71303 8.66685 3.38636 8.66685C2.98636 8.66685 2.66636 9.02018 2.71969 9.42018C3.13303 12.3469 5.91969 14.5135 9.07303 13.9002C11.153 13.4935 12.8264 11.8202 13.233 9.74018C13.893 6.32018 11.293 3.33352 7.99969 3.33352Z" fill="#4E5968"/>
</svg>
